<svg width="498" height="498" viewBox="0 0 498 498" fill="none" xmlns="http://www.w3.org/2000/svg">
<path d="M497 248.5C497 385.743 385.743 497 248.5 497C111.257 497 0 385.743 0 248.5C0 111.257 111.257 0 248.5 0C385.743 0 497 111.257 497 248.5Z" fill="#262230"/>
<path d="M497 248.5C497 385.743 385.743 497 248.5 497C111.257 497 0 385.743 0 248.5C0 111.257 111.257 0 248.5 0C385.743 0 497 111.257 497 248.5Z" fill="#262230"/>
<path d="M248.8 16C280.2 16 310.7 22.1 339.4 34.3C367.1 46 392 62.8 413.4 84.2C434.8 105.6 451.5 130.5 463.3 158.2C475.4 186.9 481.6 217.3 481.6 248.8C481.6 280.3 475.5 310.7 463.3 339.4C451.6 367.1 434.8 392 413.4 413.4C392 434.8 367.1 451.5 339.4 463.3C310.7 475.4 280.3 481.6 248.8 481.6C217.3 481.6 186.9 475.5 158.2 463.3C130.5 451.6 105.6 434.8 84.2 413.4C62.8 392 46.1 367.1 34.3 339.4C22.2 310.7 16 280.3 16 248.8C16 217.3 22.1 186.9 34.3 158.2C46 130.5 62.8 105.6 84.2 84.2C105.6 62.8 130.5 46.1 158.2 34.3C186.9 22.1 217.3 16 248.8 16ZM248.8 0C111.4 0 0 111.3 0 248.6C0 385.9 111.3 497.3 248.7 497.3C386.1 497.3 497.4 386 497.4 248.6C497.4 111.2 386.1 0 248.8 0Z" fill="#FE617C"/>
<path d="M116.9 321.3C111.2 313.9 108.3 302.9 108.3 288.2H123.1C123.1 298.9 124.8 306.9 128.1 312.3C131.4 317.7 137.2 320.4 145.4 320.4C154.3 320.4 160.3 317.1 163.4 310.6C166.5 304 168.1 293.4 168.1 278.7C168.1 268.6 167.4 260.6 166 254.7C164.6 248.8 162.2 244.6 158.9 241.9C155.6 239.3 151.2 237.9 145.6 237.9C136.8 237.9 129.7 242.4 124.3 251.5H111.9V166.4H175.7L175.5 180.4H125L124.2 237.4C130 230.1 138.4 226.5 149.3 226.5C161.1 226.5 169.6 230.8 174.8 239.4C180.1 248 182.7 260.5 182.7 277C182.7 295.4 179.7 309.2 173.8 318.6C167.9 327.9 158.1 332.6 144.6 332.6C132 332.3 122.7 328.6 116.9 321.3Z" fill="#FE617C"/>
<path d="M206 284.1V212.7C206 180.7 219 164.7 244.9 164.7C270.8 164.7 284.2 180.7 284.2 212.7V284C284.2 299.3 281.2 311.2 275.1 319.7C269 328.2 259 332.5 244.9 332.5C219 332.5 206 316.4 206 284.1ZM263.6 311.2C267.2 304.9 269.1 296.2 269.1 285.3V211.7C269.1 200.6 267.3 192 263.7 185.8C260.1 179.6 253.9 176.5 245 176.5C236.1 176.5 230 179.6 226.5 185.8C222.9 192 221.1 200.7 221.1 211.7V285.3C221.1 308.9 229.1 320.8 245 320.8C253.7 320.8 259.9 317.6 263.6 311.2Z" fill="#FE617C"/>
<path d="M310.8 284.1V212.7C310.8 180.7 323.8 164.7 349.7 164.7C375.6 164.7 389 180.7 389 212.7V284C389 299.3 386 311.2 379.9 319.7C373.8 328.2 363.8 332.5 349.7 332.5C323.8 332.5 310.8 316.4 310.8 284.1ZM368.4 311.2C372 304.9 373.9 296.2 373.9 285.3V211.7C373.9 200.6 372.1 192 368.5 185.8C364.9 179.6 358.7 176.5 349.8 176.5C340.9 176.5 334.8 179.6 331.3 185.8C327.7 192 325.9 200.7 325.9 211.7V285.3C325.9 308.9 333.9 320.8 349.8 320.8C358.5 320.8 364.7 317.6 368.4 311.2Z" fill="#FE617C"/>
<path d="M243.9 464.4C243.8 461.6 246 459.3 248.7 459.2C251.5 459.1 253.8 461.3 253.9 464C254 466.8 251.8 469.1 249.1 469.2H248.9C246.2 469.2 244 467.1 243.9 464.4Z" fill="#FE617C"/>
<path d="M228.5 467.9C225.7 467.6 223.7 465.2 224 462.4C224.3 459.6 226.7 457.6 229.5 457.9C232.3 458.2 234.3 460.6 234 463.4C233.7 466 231.6 467.9 229 467.9H228.5Z" fill="#FE617C"/>
<path d="M263.8 463.4C263.5 460.6 265.5 458.2 268.3 457.9C271.1 457.6 273.5 459.6 273.8 462.4C274.1 465.2 272.1 467.6 269.3 467.9H268.8C266.2 467.9 264.1 466 263.8 463.4Z" fill="#FE617C"/>
<path d="M208.4 465.1C205.7 464.6 203.9 462 204.4 459.3C204.9 456.6 207.5 454.8 210.2 455.3C212.9 455.8 214.7 458.4 214.3 461.1C213.9 463.5 211.7 465.2 209.4 465.2C209 465.2 208.7 465.2 208.4 465.1Z" fill="#FE617C"/>
<path d="M283.6 461C283.1 458.3 284.9 455.7 287.6 455.2C290.3 454.7 292.9 456.5 293.4 459.2C293.9 461.9 292.1 464.5 289.4 465C289.1 465.1 288.8 465.1 288.5 465.1C286.1 465.1 284 463.4 283.6 461Z" fill="#FE617C"/>
<path d="M188.6 460.7C185.9 460 184.3 457.3 185 454.6C185.7 451.9 188.5 450.3 191.1 451C193.8 451.7 195.4 454.5 194.6 457.1C194 459.3 192 460.8 189.8 460.8C189.4 460.9 189 460.8 188.6 460.7Z" fill="#FE617C"/>
<path d="M303.1 457.1C302.4 454.4 304 451.7 306.6 451C309.3 450.3 312 451.9 312.7 454.5C313.4 457.2 311.8 459.9 309.2 460.6C308.8 460.7 308.3 460.8 307.9 460.8C305.7 460.8 303.7 459.3 303.1 457.1Z" fill="#FE617C"/>
<path d="M169.2 454.7C166.6 453.7 165.3 450.9 166.2 448.3C167.1 445.7 170 444.4 172.6 445.3C175.2 446.2 176.5 449.1 175.6 451.7C174.9 453.7 172.9 455 170.9 455C170.3 455 169.7 454.9 169.2 454.7Z" fill="#FE617C"/>
<path d="M322.2 451.5C321.2 448.9 322.6 446 325.2 445.1C327.8 444.1 330.7 445.5 331.6 448.1C332.6 450.7 331.2 453.6 328.6 454.5C328 454.7 327.5 454.8 326.9 454.8C324.9 454.8 322.9 453.5 322.2 451.5Z" fill="#FE617C"/>
<path d="M150.4 446.8C147.9 445.6 146.8 442.6 148 440.1C149.2 437.6 152.2 436.5 154.7 437.7C157.2 438.9 158.3 441.9 157.1 444.3C156.3 446.1 154.5 447.2 152.6 447.2C151.8 447.3 151 447.2 150.4 446.8Z" fill="#FE617C"/>
<path d="M340.7 444.3C339.5 441.8 340.6 438.8 343.1 437.6C345.6 436.4 348.6 437.5 349.8 440C351 442.5 349.9 445.5 347.4 446.7C346.7 447 346 447.2 345.3 447.2C343.4 447.1 341.6 446.1 340.7 444.3Z" fill="#FE617C"/>
<path d="M132.4 437.2C130 435.8 129.3 432.7 130.7 430.4C132.1 428 135.2 427.2 137.6 428.7C140 430.1 140.7 433.2 139.3 435.5C138.4 437.1 136.7 437.9 135 437.9C134 437.9 133.2 437.7 132.4 437.2Z" fill="#FE617C"/>
<path d="M358.5 435.3C357.1 432.9 357.8 429.9 360.2 428.4C362.6 427 365.6 427.7 367.1 430.1C368.5 432.5 367.8 435.5 365.4 437C364.6 437.5 363.7 437.7 362.8 437.7C361.1 437.7 359.5 436.8 358.5 435.3Z" fill="#FE617C"/>
<path d="M115.4 425.9C113.2 424.2 112.7 421.1 114.4 418.9C116 416.7 119.2 416.2 121.4 417.9C123.6 419.5 124.1 422.7 122.4 424.9C121.4 426.2 119.9 426.9 118.4 426.9C117.3 426.9 116.3 426.6 115.4 425.9Z" fill="#FE617C"/>
<path d="M375.3 424.6C373.6 422.4 374.1 419.3 376.3 417.6C378.5 415.9 381.6 416.4 383.3 418.6C384.9 420.8 384.5 423.9 382.3 425.6C381.4 426.3 380.3 426.6 379.3 426.6C377.8 426.6 376.3 425.9 375.3 424.6Z" fill="#FE617C"/>
<path d="M99.6 412.9C97.6 411 97.4 407.9 99.3 405.8C101.2 403.8 104.3 403.6 106.4 405.5C108.4 407.4 108.6 410.5 106.7 412.6C105.7 413.7 104.4 414.2 103 414.2C101.8 414.3 100.6 413.8 99.6 412.9Z" fill="#FE617C"/>
<path d="M391 412.3C389.1 410.3 389.3 407.1 391.3 405.2C393.3 403.3 396.5 403.5 398.4 405.5C400.3 407.5 400.1 410.7 398.1 412.6C397.1 413.5 395.9 413.9 394.7 413.9C393.3 413.9 392 413.4 391 412.3Z" fill="#FE617C"/>
<path d="M85.3 398.4C83.5 396.3 83.6 393.2 85.7 391.3C87.7 389.5 90.9 389.6 92.8 391.7C94.6 393.7 94.5 396.9 92.4 398.8C91.4 399.6 90.3 400.1 89.1 400.1C87.6 400.1 86.2 399.5 85.3 398.4Z" fill="#FE617C"/>
<path d="M405.3 398.5C403.2 396.7 403.1 393.5 404.9 391.4C406.7 389.3 409.9 389.2 412 391C414 392.8 414.2 396 412.4 398.1C411.4 399.2 410 399.8 408.7 399.8C407.5 399.8 406.3 399.3 405.3 398.5Z" fill="#FE617C"/>
<path d="M72.4 382.6C70.8 380.4 71.3 377.2 73.5 375.6C75.7 374 78.9 374.4 80.5 376.7C82.1 378.9 81.7 382.1 79.4 383.7C78.5 384.3 77.5 384.7 76.4 384.7C74.9 384.6 73.4 383.9 72.4 382.6Z" fill="#FE617C"/>
<path d="M418.2 383.3C416 381.7 415.5 378.5 417.1 376.3C418.7 374.1 421.9 373.6 424.1 375.2C426.3 376.8 426.8 380 425.2 382.2C424.2 383.5 422.7 384.2 421.2 384.2C420.1 384.3 419.1 383.9 418.2 383.3Z" fill="#FE617C"/>
<path d="M61.2 365.6C59.8 363.2 60.6 360.2 63 358.7C65.4 357.3 68.4 358.1 69.9 360.5C71.3 362.9 70.5 365.9 68.1 367.3C67.3 367.8 66.4 368 65.6 368C63.8 368 62.1 367.1 61.2 365.6Z" fill="#FE617C"/>
<path d="M429.5 366.9C427.1 365.5 426.3 362.4 427.7 360C429.1 357.6 432.2 356.8 434.5 358.2C436.9 359.6 437.7 362.7 436.3 365C435.4 366.6 433.7 367.5 432 367.5C431.2 367.6 430.3 367.4 429.5 366.9Z" fill="#FE617C"/>
<path d="M51.6 347.5C50.4 345 51.5 342 54 340.9C56.5 339.7 59.5 340.8 60.6 343.3C61.8 345.8 60.7 348.8 58.2 350C57.5 350.3 56.8 350.5 56.1 350.5C54.3 350.4 52.5 349.3 51.6 347.5Z" fill="#FE617C"/>
<path d="M439.2 349.5C436.7 348.3 435.6 345.4 436.8 342.9C438 340.4 441 339.3 443.5 340.5C446 341.7 447.1 344.6 445.9 347.1C445 348.9 443.2 350 441.4 350C440.7 350 439.9 349.8 439.2 349.5Z" fill="#FE617C"/>
<path d="M43.8 328.7C42.9 326.1 44.2 323.2 46.8 322.3C49.4 321.4 52.3 322.7 53.2 325.3C54.1 327.9 52.8 330.8 50.2 331.7C49.6 331.9 49.1 332 48.5 332C46.5 332 44.6 330.8 43.8 328.7Z" fill="#FE617C"/>
<path d="M447.3 331.3C444.7 330.4 443.4 327.5 444.3 324.9C445.2 322.3 448.1 321 450.7 321.9C453.3 322.8 454.6 325.7 453.7 328.3C453 330.3 451.1 331.6 449 331.6C448.4 331.6 447.8 331.5 447.3 331.3Z" fill="#FE617C"/>
<path d="M37.7 309.3C37 306.6 38.6 303.9 41.3 303.2C44 302.5 46.7 304.1 47.4 306.7C48.1 309.4 46.5 312.1 43.9 312.8C43.5 312.9 43 313 42.6 313C40.3 313 38.3 311.5 37.7 309.3Z" fill="#FE617C"/>
<path d="M453.6 312.4C450.9 311.7 449.3 309 450 306.3C450.7 303.6 453.4 302 456.1 302.7C458.8 303.4 460.4 306.1 459.7 308.8C459.1 311 457.1 312.5 454.9 312.5C454.5 312.6 454 312.5 453.6 312.4Z" fill="#FE617C"/>
<path d="M33.4 289.4C32.9 286.7 34.8 284.1 37.5 283.6C40.2 283.1 42.8 285 43.3 287.7C43.8 290.4 41.9 293 39.2 293.5C38.9 293.5 38.6 293.6 38.3 293.6C35.9 293.5 33.8 291.8 33.4 289.4Z" fill="#FE617C"/>
<path d="M458.3 293C455.6 292.5 453.7 289.9 454.2 287.2C454.7 284.5 457.2 282.7 460 283.1C462.7 283.6 464.5 286.1 464.1 288.9C463.7 291.3 461.6 293.1 459.2 293.1C458.8 293.1 458.6 293.1 458.3 293Z" fill="#FE617C"/>
<path d="M30.7 269.2C30.5 266.4 32.5 264 35.2 263.8C38 263.6 40.4 265.6 40.6 268.3C40.8 271.1 38.8 273.5 36.1 273.7H35.7C33.1 273.8 31 271.8 30.7 269.2Z" fill="#FE617C"/>
<path d="M461.2 273.3C458.4 273.1 456.4 270.6 456.6 267.9C456.8 265.1 459.3 263.1 462 263.3C464.8 263.5 466.8 265.9 466.6 268.7C466.4 271.3 464.2 273.3 461.6 273.3H461.2Z" fill="#FE617C"/>
<path d="M29.8 248.9C29.8 246.1 32 243.9 34.8 243.9C37.6 243.9 39.8 246.1 39.8 248.9C39.8 251.7 37.6 253.9 34.8 253.9C32.1 253.9 29.8 251.6 29.8 248.9Z" fill="#FE617C"/>
<path d="M457.5 248.4C457.5 245.6 459.7 243.4 462.5 243.4C465.3 243.4 467.5 245.6 467.5 248.4C467.5 251.2 465.3 253.4 462.5 253.4C459.7 253.4 457.5 251.2 457.5 248.4Z" fill="#FE617C"/>
<path d="M35.2 234C32.4 233.8 30.4 231.4 30.6 228.6C30.8 225.8 33.2 223.8 36 224C38.8 224.2 40.8 226.6 40.6 229.4C40.4 232 38.2 234 35.6 234H35.2Z" fill="#FE617C"/>
<path d="M456.6 228.9C456.4 226.1 458.4 223.7 461.1 223.5C463.9 223.3 466.3 225.3 466.5 228.1C466.7 230.9 464.7 233.3 462 233.5H461.6C459 233.5 456.8 231.6 456.6 228.9Z" fill="#FE617C"/>
<path d="M37.3 214.1C34.6 213.6 32.8 211.1 33.2 208.3C33.7 205.6 36.2 203.8 39 204.2C41.7 204.7 43.6 207.2 43.1 210C42.7 212.4 40.6 214.2 38.2 214.2C37.9 214.2 37.6 214.2 37.3 214.1Z" fill="#FE617C"/>
<path d="M454.1 209.6C453.6 206.9 455.5 204.3 458.2 203.8C460.9 203.3 463.5 205.2 464 207.9C464.5 210.6 462.6 213.2 459.9 213.7C459.6 213.7 459.3 213.8 459.1 213.8C456.7 213.8 454.5 212 454.1 209.6Z" fill="#FE617C"/>
<path d="M41.1 194.6C38.4 193.9 36.8 191.2 37.5 188.5C38.2 185.8 40.9 184.2 43.6 184.9C46.3 185.6 47.9 188.3 47.2 191C46.6 193.2 44.6 194.7 42.4 194.7C41.9 194.7 41.5 194.7 41.1 194.6Z" fill="#FE617C"/>
<path d="M450 190.6C449.3 187.9 450.9 185.2 453.6 184.5C456.3 183.8 459 185.4 459.7 188.1C460.4 190.8 458.8 193.5 456.1 194.2C455.7 194.3 455.3 194.4 454.8 194.4C452.6 194.3 450.6 192.8 450 190.6Z" fill="#FE617C"/>
<path d="M46.6 175.4C44 174.5 42.7 171.6 43.6 169C44.5 166.4 47.4 165.1 50 166C52.6 166.9 54 169.8 53 172.4C52.3 174.4 50.3 175.7 48.3 175.7C47.7 175.7 47.1 175.6 46.6 175.4Z" fill="#FE617C"/>
<path d="M444.2 172C443.3 169.4 444.6 166.5 447.2 165.6C449.8 164.7 452.7 166 453.6 168.6C454.5 171.2 453.2 174.1 450.6 175C450 175.2 449.5 175.3 448.9 175.3C446.8 175.3 444.9 174 444.2 172Z" fill="#FE617C"/>
<path d="M53.7 156.8C51.2 155.6 50.1 152.7 51.3 150.2C52.5 147.7 55.4 146.6 57.9 147.8C60.4 149 61.5 151.9 60.3 154.4C59.4 156.2 57.7 157.3 55.8 157.3C55.1 157.3 54.4 157.1 53.7 156.8Z" fill="#FE617C"/>
<path d="M436.7 154C435.5 151.5 436.6 148.5 439.1 147.4C441.6 146.2 444.6 147.3 445.8 149.8C447 152.3 445.9 155.3 443.4 156.5C442.7 156.8 442 157 441.3 157C439.4 156.9 437.6 155.8 436.7 154Z" fill="#FE617C"/>
<path d="M62.6 139C60.2 137.6 59.4 134.5 60.8 132.2C62.2 129.8 65.3 129 67.6 130.4C70 131.8 70.8 134.9 69.4 137.2C68.5 138.8 66.8 139.7 65.1 139.7C64.2 139.7 63.4 139.4 62.6 139Z" fill="#FE617C"/>
<path d="M427.6 136.8C426.2 134.4 427 131.4 429.4 129.9C431.8 128.5 434.8 129.3 436.2 131.7C437.6 134.1 436.8 137.2 434.4 138.6C433.6 139.1 432.7 139.3 431.9 139.3C430.2 139.3 428.6 138.4 427.6 136.8Z" fill="#FE617C"/>
<path d="M73.1 122C70.9 120.4 70.4 117.2 72 115C73.6 112.8 76.8 112.3 79 113.9C81.2 115.5 81.7 118.7 80.1 120.9C79.1 122.3 77.6 123 76 123C75 123 73.9 122.7 73.1 122Z" fill="#FE617C"/>
<path d="M417 120.6C415.4 118.4 415.9 115.2 418.1 113.6C420.3 112 423.5 112.5 425.1 114.7C426.7 116.9 426.2 120.1 424 121.7C423.1 122.3 422.1 122.7 421 122.7C419.5 122.6 417.9 121.9 417 120.6Z" fill="#FE617C"/>
<path d="M85.2 106.2C83.1 104.4 83 101.2 84.8 99.1C86.6 97 89.8 96.9 91.9 98.7C94 100.5 94.1 103.7 92.3 105.8C91.3 106.9 89.9 107.5 88.6 107.5C87.3 107.5 86.1 107.1 85.2 106.2Z" fill="#FE617C"/>
<path d="M404.8 105.5C403 103.4 403.1 100.3 405.2 98.4C407.3 96.6 410.4 96.7 412.3 98.8C414.1 100.9 414 104 411.9 105.9C410.9 106.7 409.8 107.2 408.6 107.2C407.1 107.1 405.7 106.6 404.8 105.5Z" fill="#FE617C"/>
<path d="M98.8 91.7C96.9 89.7 97.1 86.5 99.1 84.6C101.1 82.7 104.3 82.9 106.2 84.9C108.1 86.9 107.9 90.1 105.9 92C104.9 92.9 103.7 93.3 102.5 93.3C101.1 93.3 99.8 92.7 98.8 91.7Z" fill="#FE617C"/>
<path d="M391.1 91.7C389.1 89.8 388.9 86.7 390.8 84.6C392.7 82.6 395.8 82.4 397.9 84.3C399.9 86.2 400.1 89.3 398.2 91.4C397.2 92.5 395.9 93 394.5 93C393.3 93 392.1 92.5 391.1 91.7Z" fill="#FE617C"/>
<path d="M113.8 78.6C112.2 76.4 112.6 73.3 114.8 71.6C117 70 120.2 70.4 121.8 72.6C123.5 74.8 123 78 120.8 79.6C119.9 80.3 118.9 80.6 117.8 80.6C116.3 80.6 114.8 79.9 113.8 78.6Z" fill="#FE617C"/>
<path d="M376.1 79.3C373.9 77.7 373.4 74.5 375.1 72.3C376.7 70.1 379.9 69.6 382.1 71.3C384.3 73 384.8 76.1 383.1 78.3C382.1 79.6 380.6 80.3 379.1 80.3C378.1 80.3 377 80 376.1 79.3Z" fill="#FE617C"/>
<path d="M130 67.1C128.6 64.7 129.3 61.7 131.7 60.2C134.1 58.8 137.1 59.5 138.6 61.9C140 64.3 139.3 67.3 136.9 68.8C136.1 69.3 135.2 69.5 134.3 69.5C132.6 69.5 131 68.6 130 67.1Z" fill="#FE617C"/>
<path d="M360 68.5C357.6 67.1 356.9 64 358.3 61.6C359.7 59.2 362.8 58.5 365.2 59.9C367.6 61.3 368.3 64.4 366.9 66.8C366 68.4 364.3 69.2 362.6 69.2C361.7 69.2 360.8 69 360 68.5Z" fill="#FE617C"/>
<path d="M147.3 57.2C146.1 54.7 147.2 51.7 149.7 50.5C152.2 49.3 155.2 50.4 156.4 52.9C157.6 55.4 156.5 58.4 154 59.6C153.3 59.9 152.6 60.1 151.9 60.1C150 60.1 148.2 59 147.3 57.2Z" fill="#FE617C"/>
<path d="M342.9 59.4C340.4 58.2 339.3 55.2 340.5 52.7C341.7 50.2 344.7 49.1 347.1 50.3C349.6 51.5 350.7 54.5 349.5 57C348.7 58.8 346.9 59.9 345 59.9C344.3 59.8 343.6 59.7 342.9 59.4Z" fill="#FE617C"/>
<path d="M165.5 49.1C164.6 46.5 165.9 43.6 168.5 42.7C171.1 41.7 174 43.1 174.9 45.7C175.8 48.3 174.5 51.2 171.9 52.1C171.3 52.3 170.8 52.4 170.2 52.4C168.1 52.3 166.2 51.1 165.5 49.1Z" fill="#FE617C"/>
<path d="M324.9 51.9C322.3 51 321 48.1 321.9 45.5C322.9 42.9 325.7 41.6 328.3 42.5C330.9 43.4 332.2 46.3 331.3 48.9C330.6 50.9 328.6 52.2 326.6 52.2C326.1 52.2 325.5 52.1 324.9 51.9Z" fill="#FE617C"/>
<path d="M184.3 42.6C183.6 39.9 185.2 37.2 187.8 36.5C190.5 35.8 193.2 37.4 193.9 40C194.6 42.7 193 45.4 190.4 46.1C190 46.2 189.5 46.3 189.1 46.3C187 46.3 184.9 44.9 184.3 42.6Z" fill="#FE617C"/>
<path d="M306.4 46.1C303.7 45.4 302.2 42.6 302.9 40C303.6 37.3 306.4 35.8 309 36.5C311.7 37.2 313.3 40 312.5 42.6C311.9 44.8 309.9 46.3 307.7 46.3C307.2 46.2 306.8 46.2 306.4 46.1Z" fill="#FE617C"/>
<path d="M203.7 37.9C203.2 35.2 205 32.6 207.7 32.1C210.4 31.6 213 33.4 213.5 36.1C214 38.8 212.2 41.4 209.5 41.9C209.2 41.9 208.9 42 208.6 42C206.2 42 204.1 40.3 203.7 37.9Z" fill="#FE617C"/>
<path d="M287.3 41.8C284.6 41.3 282.8 38.7 283.3 36C283.8 33.3 286.4 31.5 289.1 32C291.8 32.5 293.6 35.1 293.1 37.8C292.7 40.2 290.6 41.9 288.2 41.9C287.9 41.9 287.6 41.9 287.3 41.8Z" fill="#FE617C"/>
<path d="M223.3 34.7C223 31.9 225 29.5 227.8 29.2C230.5 28.9 233 30.9 233.3 33.7C233.6 36.5 231.6 38.9 228.8 39.2H228.3C225.8 39.2 223.6 37.3 223.3 34.7Z" fill="#FE617C"/>
<path d="M268 39.1C265.2 38.8 263.2 36.4 263.5 33.6C263.8 30.8 266.2 28.8 269 29.1C271.8 29.4 273.8 31.8 273.5 34.6C273.2 37.2 271.1 39.1 268.5 39.1H268Z" fill="#FE617C"/>
<path d="M243.2 33C243.1 30.2 245.3 27.9 248 27.8H248.7C251.5 27.9 253.6 30.2 253.5 32.9C253.4 35.6 251.1 37.8 248.4 37.8H248C245.5 37.8 243.3 35.7 243.2 33Z" fill="#FE617C"/>
</svg>
