<?xml version="1.0" encoding="UTF-8"?><svg id="Layer_1" xmlns="http://www.w3.org/2000/svg" viewBox="0 0 457.12 468.83"><defs><style>.cls-1{fill-rule:evenodd;}.cls-1,.cls-2{fill:#0f0f0f;stroke-width:0px;}</style></defs><path class="cls-1" d="m456.96,202.81c.04-27.24.08-53.36.11-77.43l-51.14-15.21v92.64h51.03Z"/><path class="cls-1" d="m375.09,202.77c.06-46.99.14-92.55.19-132.48l-51.14-15.21v147.69h50.95Z"/><path class="cls-1" d="m.15,437.55l50.99-39.52V110.17L0,125.38c.11,91.34.4,212.16.15,312.17Z"/><path class="cls-2" d="m131.22,468.83H.02l313.76-246.02h143.34v246.02h-142.87l-65.83-59.88h101.78v-112.33l-218.98,172.21Z"/><path class="cls-1" d="m79.95,375.63l50.97-39.51V55.08l-51.14,15.21c.11,89.27.39,206.69.16,305.34Z"/><path class="cls-1" d="m161.31,312.62l50.94-39.48V0l-51.14,15.77c.1,86.67.36,198.94.2,296.85Z"/><path class="cls-1" d="m293.71,213.39c.04-69.35.17-139.28.24-197.62L242.81,0v252.84l50.9-39.45Z"/></svg>
