<?xml version="1.0" encoding="utf-8"?>
<svg xmlns="http://www.w3.org/2000/svg" xmlns:xlink="http://www.w3.org/1999/xlink" version="1.1" id="Layer_1" x="0px" y="0px" viewBox="0 0 1012.8 1012.8" style="enable-background:new 0 0 1012.8 1012.8;">
<style type="text/css">
	.st0{fill:#64BFAF;}
	.st1{fill:#071F27;}
	.st2{fill:#DDDEDD;}
	.st3{fill:#C8D654;}
	.st4{fill:#FFFFFF;}
	.st5{fill:#BCBCBB;}
</style>
<path class="st0" d="M773.8,175.6c30.8-5.1,62.5-6.8,93.4-1.9c20.4,3.3,40.5,9.6,58.1,20.7c12.4,7.9,23.3,18.2,31.7,30.4&#xD;&#xA;	c10.1,14.7,16.4,31.9,19.7,49.4c3.3,19.3-0.2,39.1-6,57.5c-9.5,28.8-24.5,55.6-42.3,80.1c10.7-1.1,21.5-2.4,32.2-3.4&#xD;&#xA;	c2.1,7.7,4.5,15.3,6.7,23c15.6,52.4,30.6,104.9,45.6,157.5v0.2c-19.2,5.2-38.5,10.5-57.7,15.6c9.9,43.6,19.4,87.2,28.7,130.9&#xD;&#xA;	c-22.2,9.7-44.3,19.6-66.7,28.7c-36.7,14.8-73.9,28.4-112,39.1c-71.5,21.5-145.6,34.2-220.3,37.1c-1.5,0-2.9,0.3-4.1,1.1&#xD;&#xA;	c-8.7,0.2-17.4-0.5-26.1,0.5h-0.8c-10.6-1.5-21.3-1-31.9-1.6c-28.8-1.1-57.6-3.8-86.2-7.8c-19.4-2.7-38.6-6.4-57.8-9.8&#xD;&#xA;	c-13.3-32.6-26-65.5-38.6-98.4c-3.9,29.1-7.8,58.3-11.7,87.5c-34.3-11.1-68.8-21.5-102.5-34.3c-37-13.7-73.1-29.8-109.1-46&#xD;&#xA;	c3-13.5,6-27,9-40.5c-11.3-0.6-22.6-1.5-33.9-2.8c-20.7-2.6-41.4-8.1-59.2-19.2C19.1,661.3,8,650,3,635.8&#xD;&#xA;	c-5.3-14.5-3.3-31.1,4.2-44.5c9.6-17.2,25.6-29.8,42.3-39.6c19.8-11.5,41.5-19.1,63.3-25.7c11.5-39.3,22.9-78.6,34.6-117.8&#xD;&#xA;	c14.7,1.7,29.4,3.2,44.1,4.7c12-47.1,24.4-94.1,37.2-141c15.7-1.4,31.4-3.2,47-4.7c42.9-4.4,85.8-8,128.8-11.4&#xD;&#xA;	c1.6,6.5,3.1,13,4.8,19.4c0.5-6.6,1.2-13.3,1.8-19.9c41.8-2.1,83.7-4.3,125.6-4.4c1.7-0.1,3.6,0.1,5.1-1&#xD;&#xA;	c22.1-14.1,45.3-26.3,69.3-36.8c1.5-3.1,2.9-6.3,4.4-9.4c15.4-5.5,30.9-10.7,46.6-15.2c17.9-5,36.1-10.1,54.8-10.3&#xD;&#xA;	c0-0.7-0.1-2-0.2-2.7C735.7,174.4,754.9,172.1,773.8,175.6 M766.4,185.3c-0.3-0.9-0.6-1.9-0.9-2.8c-13.3-1.3-26.6-0.6-39.9,0.5&#xD;&#xA;	c1,8.4,2.3,16.7,2.6,25.1c-4.8-6.4-5.4-14.6-7.7-22c-17.3,0-34.2,4-50.7,8.6c-16.4,4.6-32.6,9.7-48.5,15.6c-1.5,2.9-2.4,6.2-4.1,9&#xD;&#xA;	c-25.8,11.2-50.8,24.4-74.5,39.6c-41.4,0.4-82.8,2.1-124.1,4.2c-2,20-3.7,40-5.6,59.9c-5.3-19.3-9.8-38.8-14.7-58.1l-0.4-0.2&#xD;&#xA;	c-54.4,3.8-108.7,9.3-162.9,14.8c-13,47.3-25.3,94.8-37.5,142.3c-14.8-1.7-29.6-3.2-44.3-4.8c-11.4,38.5-22.8,77.1-33.8,115.8&#xD;&#xA;	c-19.5,5.3-38.7,11.9-56.8,21C49.2,560.7,36.3,569,25.7,580c-8,8.3-14.6,18.4-16.8,29.9C6.6,621.5,9.3,634,16,643.8&#xD;&#xA;	c9,13.1,23.1,21.6,37.7,27.3c25.7,10,53.7,11.1,81,12.4c-2.9,14.6-6.5,29-9.5,43.6c28.7,12.8,57.3,25.6,86.6,36.9&#xD;&#xA;	c35.7,14.2,72.3,25.7,108.9,37.3c4.9-36.1,9.5-72.2,14.7-108.2c0.1-0.3,0.4-0.9,0.5-1.2c15.2,41.6,31,83,47.8,123.9&#xD;&#xA;	c7.2,1.1,14.4,2.6,21.6,3.8c27.9,5,56.1,8.6,84.3,10.8c25,2.1,50.1,2.4,75.1,3c6.4,0.4,12.7-0.9,19.1-1&#xD;&#xA;	c69-2.7,137.5-13.7,203.9-32.5c15.1-4.5,30.4-8.5,45.4-13.5c48.2-15.7,95.2-34.9,141.3-55.8c-9.5-44-19-87.9-29-131.8&#xD;&#xA;	c19.1-5,38.2-10.3,57.3-15.4c-15.6-55.6-31.7-111-48.2-166.4c-15,1.8-30.1,3.1-45.1,4.9c10.7-11.7,19.6-24.9,27.9-38.4&#xD;&#xA;	c10.9-18.1,20.3-37.3,26.5-57.6c4.6-15.4,7.5-31.8,5.3-47.9c-3.5-22.1-12.7-43.7-28.2-60.1c-12.2-13.1-27.9-22.5-44.7-28.5&#xD;&#xA;	c-17.8-6.4-36.6-9.4-55.4-10.3C815.8,178.1,790.8,180.3,766.4,185.3z"/>
<path class="st1" d="M766.4,185.3c24.4-5,49.5-7.2,74.4-6.2c18.8,1,37.7,3.9,55.4,10.3c16.8,6,32.5,15.5,44.7,28.5&#xD;&#xA;	c15.5,16.4,24.7,38,28.2,60.1c2.2,16.1-0.7,32.4-5.3,47.9c-6.2,20.3-15.6,39.4-26.5,57.6c-8.2,13.5-17.2,26.7-27.9,38.4&#xD;&#xA;	c15-1.8,30.1-3.2,45.1-4.9c16.5,55.3,32.6,110.8,48.2,166.4c-19.1,5.1-38.1,10.4-57.3,15.4c10,43.9,19.5,87.8,29,131.8&#xD;&#xA;	c-46.2,20.9-93.1,40.2-141.3,55.8c-15,5-30.2,9-45.4,13.5c-66.4,18.8-135,29.8-203.9,32.5c-6.4,0.1-12.7,1.3-19.1,1&#xD;&#xA;	c-25-0.6-50.1-0.9-75.1-3c-28.3-2.2-56.4-5.9-84.3-10.8c-7.2-1.2-14.3-2.7-21.6-3.8c-16.9-40.9-32.6-82.3-47.8-123.9&#xD;&#xA;	c-0.1,0.3-0.4,0.9-0.5,1.2c-5.2,36-9.8,72.1-14.7,108.2c-36.6-11.6-73.2-23.1-108.9-37.3c-29.3-11.3-57.9-24.1-86.6-36.9&#xD;&#xA;	c2.9-14.6,6.5-29,9.5-43.6c-27.3-1.3-55.2-2.4-81-12.4C39.2,665.4,25,656.9,16,643.8c-6.8-9.8-9.5-22.2-7.1-33.9&#xD;&#xA;	c2.2-11.5,8.8-21.6,16.8-29.9c10.5-10.9,23.5-19.3,36.9-26.1c18.1-9.1,37.3-15.8,56.8-21c11-38.7,22.4-77.2,33.8-115.8&#xD;&#xA;	c14.8,1.6,29.6,3.1,44.3,4.8c12.2-47.5,24.5-95,37.5-142.3c54.2-5.5,108.5-11,162.9-14.8l0.4,0.2c4.9,19.4,9.4,38.9,14.7,58.1&#xD;&#xA;	c1.9-20,3.6-40,5.6-59.9c41.4-2.1,82.8-3.9,124.1-4.2c23.7-15.1,48.7-28.4,74.5-39.6c1.7-2.8,2.6-6,4.1-9&#xD;&#xA;	c15.9-5.9,32.2-11,48.5-15.6c16.5-4.6,33.5-8.6,50.7-8.6c2.3,7.4,3,15.7,7.7,22c-0.3-8.4-1.7-16.7-2.6-25.1&#xD;&#xA;	c13.3-1.1,26.6-1.8,39.9-0.5C765.8,183.5,766.1,184.4,766.4,185.3 M741.4,196c1.3,16,2.8,32.1,5.8,47.9c-3.8-9.1-6.6-18.5-9.5-27.9&#xD;&#xA;	c-4.6,3.9-11.1,5.2-16.7,2.7c1.7,5.7,3.8,11.4,4.6,17.3c-5.5-12.1-11.9-23.9-19.3-35c-24.3,3.7-47.9,11.4-71.1,19.3&#xD;&#xA;	c-4.7,12.7-4.2,26.6-1.9,39.7c-3.8-9.4-4.8-19.7-5.7-29.8c-28.8,12-56.6,26.6-82.5,44c-24.8,17-48.7,36.6-65.3,62.1&#xD;&#xA;	c1.3,0.4,2.5,0.8,3.8,1.2c10.8,2.6,21.9,3.6,33,4.2c23.8,0.9,47.6-0.7,71.2-3.2c22.4-2.4,44.7-5.8,66.8-9.9&#xD;&#xA;	c-3.5-7.9-6.6-16-9.4-24.2c-1-2.8-1.9-5.7-2.5-8.6c2.3,5.6,5.1,11,8.4,16.2c4.8,7.8,10.5,15.1,17.2,21.5&#xD;&#xA;	c24.2-4.9,47.6-13.6,69.6-24.8c0.4-7.6,0.1-15.3-0.6-22.8c-0.3-4.9-1.2-9.6-1.6-14.5c1.2,2.8,2.2,5.8,3.2,8.8&#xD;&#xA;	c1.4,4.4,2.8,8.8,4,13.2c4.7-3.6,10.5-5.6,16.4-5.5c-1.3-4.8-2.8-9.5-3.7-14.4l-0.2,0.1c-0.6-2.3-1.1-4.6-1.5-6.9&#xD;&#xA;	c1.8,3.4,3.1,7.1,5.1,10.4l0.7,0.2l-0.2,0.7c3.6,7.5,8,14.7,12.5,21.8c4.1-1.6,7.6-4.2,10.8-7.3c-2.8-7.9-5.7-15.8-8.5-23.7&#xD;&#xA;	c-8.6-23.7-14.1-48.4-19.9-72.9C750.1,195.8,745.7,195.9,741.4,196 M773.9,217.5c0.6,2.2,1.2,4.5,1.8,6.7c13.2-2.6,26.6-4.4,40-5.2&#xD;&#xA;	c20.8-1,42-0.1,62,5.9c14.1,4.3,27.6,11.5,37.5,22.6c11.9,13.2,17.8,31.1,18.3,48.6c-2.9-18.3-12-35.8-26.5-47.4&#xD;&#xA;	c-14.6-11.9-33.5-17.2-52.1-18.5c-25.3-1.6-50.5,3-74.8,9.7c0.6,1.8,1.2,3.6,1.8,5.3c4-2.8,8.7-4.2,13.6-4.4&#xD;&#xA;	c-3.4,3.2-8.1,6.7-7.8,12c1.3,6.4,3.2,12.7,4.7,19.1c0.5,3.9,5.5,3.8,8.5,4.3c11.7,1,21.5-11.4,18.7-22.6c3.9,5.1,4.1,12.2,2.2,18.1&#xD;&#xA;	c4.5,3.3,11.2,3.1,15.5-0.6c2.6-2,3.7-5.1,4.5-8.2c-6.5-1.9-12.8-6.2-14.7-13.1c5.6,7.9,18,8.4,24.8,1.7c2.6-2.4,4.1-5.8,5-9.1&#xD;&#xA;	c16.1,1.4,32,8.4,42.8,20.6c9,10,15.2,22.5,18.3,35.6c3.7,17.4-0.4,35.5-7.5,51.5c-7.9,17.7-19.6,33.5-32.8,47.6&#xD;&#xA;	c2.2,6.4,4.4,12.9,6.6,19.3c12.4-11.1,23.1-23.9,32.7-37.3c12.1-17.1,22.4-35.8,28.5-55.9c3.9-13.1,6-26.9,4.4-40.5&#xD;&#xA;	c-1.2-16.9-8.7-33-19.7-45.8c-11-13-25.7-22.6-41.6-28.3c-19.7-7.1-40.8-8.5-61.5-7.4c0.9,1.8,1.9,3.5,3.2,5.1&#xD;&#xA;	c-0.5,0.1-0.5,1.5-1.1,1.3c-3.9-6-11.1-9.3-17.9-11C795.9,194.1,779.2,203,773.9,217.5 M816.2,282.6c-3,0.7-4.5,3.8-4.8,6.6&#xD;&#xA;	c0.9,3.5,4.3,6.6,8.1,5.4c3.1-0.8,4.6-4,4.7-6.9C823.4,284.2,819.8,281.4,816.2,282.6 M451.1,297.2c-5.5,62-11.2,123.9-16.1,186&#xD;&#xA;	c1.7,0.1,3.5,0.2,5.2,0.4c1.9,2.1,3.7,4.3,5.5,6.5c1,1.6,3.2,1,4.8,1.4c24.6,3,48.9,7.7,72.8,14.2l0,0.2c5.7,1.3,11.3,3.2,16.9,4.9&#xD;&#xA;	c0.6-48.9,0.8-97.8,1.5-146.6c-5.5-0.4-10.9-1.1-16.3-1.8c-21.4-2.8-42.5-8.6-62-18l0-0.2c-1.2-0.5-2.4-1-3.6-1.5&#xD;&#xA;	c1.6-2.7,3.2-5.3,4.7-7.9c4.7-8,10-15.6,16-22.6c4.9-5.8,10.2-11.4,15.7-16.7C481.1,295.9,466.1,296.5,451.1,297.2 M263,312.4&#xD;&#xA;	c-13.3,49.1-26,98.4-38.4,147.7c-15.2-1.3-30.4-3-45.6-4.5c-6.8,23-13.5,46-20.2,69c5.8-0.8,11.6-1.7,17.5-2.3l0-0.1&#xD;&#xA;	c2.9,0.7,3.5-2.2,4.7-4c4.7-7.4,13.3-11.8,22-12c5-9.6,14.1-17,24.7-19.3c10.9-2.6,22.6,0.5,31.3,7.5c11.6-3,24.2-1.5,34.8,4.2&#xD;&#xA;	c5.9-2.4,11.9-4.6,18.1-6.3c4.8-1.2,9.7-2.6,14.6-3.4l-0.1-0.1c2-0.5,4.1-0.9,6.1-1.4c1.4,7.6,2.4,15.3,4.2,22.8&#xD;&#xA;	c1.6-0.1,1.8-1.9,1.9-3.1c0.3-6-0.1-12.1-0.4-18.1c22.2-6.7,45.6-6.4,68.6-6.5c5.7,0.1,11.3,0.2,17,0.4&#xD;&#xA;	c-19.9-59.4-37.8-119.5-52.9-180.4C334.9,305.3,298.9,308.9,263,312.4 M757.8,308.8c-0.2,4.4,2.2,8.6,3.1,12.9l0.1-0.1&#xD;&#xA;	c0.8,2.3,1.6,4.6,2.5,6.9c-8.9,6-18.6,10.8-28.7,14.5c-22,8.3-44.6,14.6-67.4,20.2c-2.8-1.6-5.6-3.4-8.1-5.4&#xD;&#xA;	c-20.4,3.3-41,5.6-61.7,6.8c-5.3,0.2-10.6,0.4-15.9,0.5c0.3,23.3,1.1,46.5,1.4,69.8c0.3,0.2,0.9,0.7,1.2,0.9&#xD;&#xA;	c0.6,31.3,1.2,62.6,2.1,93.9c5.5,2.8,10.8,5.9,16.1,9.1c11.2,6.9,21.1,15.6,30.6,24.6c-9.4,8.3-19,16.6-29.7,23.2&#xD;&#xA;	c-5.2,3.2-10.5,6.1-15.8,9c0.4,19.7,1,39.5,1.2,59.2c-0.3,0.3-0.8,1-1,1.4c0.8,46.7,1.6,93.4,2.4,140.1&#xD;&#xA;	c60.6-2.9,120.9-12.7,179.5-28.4c56.1-14.9,110.8-35,163.8-58.3c-9.9-45.7-19.9-91.4-30.7-136.9c18.6-4.8,37.3-9.3,55.8-14.5&#xD;&#xA;	c-9.9-34.3-19.7-68.6-29.9-102.8c-63,6.7-126.2,11.8-189.4,15.1c5.6,43.5,11.4,87.1,16.6,130.7c10.9-1.4,21.7-3.3,32.5-5&#xD;&#xA;	c1.6,11.9,3.4,23.7,5,35.6c-29.6,5.9-59.4,10.9-89.4,14.7c-6-70.8-12.4-141.5-19.4-212.2c61.1-1,122.3-2.9,183.3-5.9&#xD;&#xA;	c-9.6-38.9-19.7-77.8-29.7-116.6c-12.3-1.5-24.6-2.4-36.9-3.8c-6.5,5.2-13.6,9.7-20.7,14.1c-3.9,1.9-7.6,4.3-11.4,6.3&#xD;&#xA;	c-1.4-2.9-2.8-5.7-4.4-8.5l0.2-0.1c-2.1-4.1-3.9-8.3-6.4-12.1L757.8,308.8 M228.7,500.1c-8.1,2.4-14.5,9.6-16,17.9&#xD;&#xA;	c-0.9,6.2,1,12.6,4.7,17.7c0.1,0.3,0.2,1,0.3,1.3c-5.3-4.4-9.3-10.3-10.8-17.1c-8.8-3.1-18.2,5-17.3,14.1&#xD;&#xA;	c-32.3,2.9-64.4,9-94.9,20.2c-16.7,6.1-33,13.6-47.4,24.2c-11.6,8.7-23,20.1-25.6,35c-1.2,5.9-0.3,12.1,2.1,17.6&#xD;&#xA;	c4.7,10.5,14.1,18,24,23.2c19.4,10.2,41.5,13.3,63,14.8c16.3,1.4,32.6,1.9,48.9,1.9c1-4,1.9-8,2.8-12c-21.1-2.1-42.4-4.5-62.7-11.1&#xD;&#xA;	c-7-2.4-14-5.3-19.6-10.3c-5.4-4.8-7.7-13-4.7-19.8c3.4-7.6,10.5-12.6,17.5-16.4c13.3-7,28.1-10.7,42.8-13.4&#xD;&#xA;	c24-4.2,48.4-5.1,72.7-4.5c3.5-5.6,9-10.1,15.6-11.3c-12.1,6.3-15.2,23.4-7.8,34.4c3.7,5.5,9.9,9.2,16.5,10&#xD;&#xA;	c9.3,1.3,18.8-3.9,23.4-11.8c2.7-4.7,2.4-10.2,1.6-15.3c4.2,7.5,3.2,17.1-1.8,24c11.4,8.2,28,7.7,39-1.2c0.9-13.1,1.5-26.2,1.9-39.3&#xD;&#xA;	c-14.7-3.8-29.9-5.5-45.1-6.5c-33.8-2.1-67.7-0.1-101.2,4c-18.1,2.2-36.3,5.2-53.7,11c-10.5,3.6-20.9,8.1-29.7,15&#xD;&#xA;	c-6.6,5.2-12.4,12.2-14.3,20.6c-1.5,5.7-0.7,11.7,0.9,17.3c-4.1-5-5.6-11.8-5.2-18.1c0.5-8.5,5.1-16.2,11-22.1&#xD;&#xA;	c8-7.9,17.9-13.5,28.1-18c16.9-7.4,34.9-12,53-15.8c19.2-3.9,38.5-7,58-9c32.6-3.2,65.9-3.9,98.3,2.6c-0.3-12.2-1.2-24.5-1.6-36.7&#xD;&#xA;	c-0.1-2.3-2.3-3.4-3.9-4.7c-8.9-6.4-20.7-8.1-31.1-4.7c0.2,1.6,0.5,3.2,0.7,4.9c0.2,4.4-0.1,8.8-1.7,12.9c-0.1-0.2-0.3-0.6-0.4-0.8&#xD;&#xA;	c0.2-7.5-2.4-15.5-8.5-20.2C244.4,499.5,236.1,497.7,228.7,500.1 M355.5,501.3c-1.2,3.8-0.4,8-1.5,11.8c-0.5,2.5-2.1,4.5-3,6.9&#xD;&#xA;	c-1.4,6-2.1,12-3.4,18c-0.5-5-0.6-9.9-0.5-14.9c-4.9,3.4-11.2,3.6-16.8,1.9c0,8.8-0.1,17.7-1,26.4c-1-9.4-2.6-18.7-4.3-27.9&#xD;&#xA;	c-0.3-3.3-2.8-5.8-4.1-8.7c-0.2-1.3-0.6-2.5-0.9-3.8c-0.2-1.3-0.4-2.7-0.6-4c-2.9,0.8-5.7,1.6-8.5,2.4c1.5,24.8,3.1,49.7,1.8,74.5&#xD;&#xA;	c-0.4,8.6-0.9,17.2-1.3,25.8c3.1,1.3,6.3,2.3,9.6,2.7c3.6-7.9,4.7-16.6,6.6-25.1c0.7-3.9,1.3-7.9,1.6-11.9c0.2,1.4,0.4,2.7,0.7,4.1&#xD;&#xA;	c0,5.9,0.5,11.8,0.5,17.7c5.7-1.6,11.8-1.5,17.3,0.6c0-4.6,0-9.2,0.1-13.8c0.1-3.1,0.1-6.2,0.5-9.3c1.1,5.7,1.9,11.5,3.2,17.2&#xD;&#xA;	c1.4,6.5,3.1,12.9,5.4,19.1c24.3,4.6,49.2,6.1,73.9,3.8c4.7-8.1,8-16.9,10.4-25.8c1.6-6,2.7-12.1,3.3-18.2c0.2,3.2,0.2,6.4,0.1,9.7&#xD;&#xA;	c-0.4,8.6-1,17.2-2,25.8c25.9-2.7,51.8-6.7,77.3-11.8c22-4.5,43.9-9.9,64.9-17.8c6.4-2.5,13.2-4.8,18.4-9.5c2-1.1,3.7-2.6,5.6-4&#xD;&#xA;	c-13.8-11.4-29.7-19.9-46.1-27c-19.2-8.2-39.3-14.4-59.7-19.2c-20.5-4.8-41.4-8.5-62.4-10.5c1.8,9.1,3.2,18.3,2.8,27.6&#xD;&#xA;	c-2-12.2-4.8-24.6-11.8-35C406.1,498.5,380.6,497.7,355.5,501.3 M186.1,601.3c0.1,4,3.3,8,7.6,7.7c4.1,0,6.8-3.8,7.1-7.6&#xD;&#xA;	c-0.8-3.4-3.3-6.7-7.1-6.6C189.8,594.4,186.8,597.7,186.1,601.3 M523.1,620.3v0.2c-25.1,6.9-50.7,11.9-76.5,15.3&#xD;&#xA;	c-2.3,2.4-4.2,5.2-6.6,7.5c-22.1,1.1-44.3,1.4-66.5,0.3c-5.9-0.5-11.8-0.9-17.7-1.8c16.7,47.8,34.6,95.1,53.2,142.1&#xD;&#xA;	c42.4,8,85.5,12.3,128.7,13.2c0.4-60.5,1-121.1,1.4-181.6C533.8,617.2,528.5,618.9,523.1,620.3 M201.6,620.4c-5.1,1.9-10.8,2-16,0.1&#xD;&#xA;	c-6.6,28.5-13.2,57.1-19.4,85.7c40.7,18.2,82.4,34.4,124.8,48.1c5.5-40.4,11.1-80.8,16.9-121.1c-5.2-1.5-10.1-3.6-15.2-5.4l-0.2,0.8&#xD;&#xA;	c-13.1,5.5-28.7,4.6-41-2.7c-14.7,7.4-33.7,3.1-44.1-9.6C205.7,617.9,203.7,619.2,201.6,620.4z"/>
<path class="st2" d="M741.4,196c4.3-0.1,8.7-0.2,13-0.1c5.8,24.5,11.3,49.2,19.9,72.9c-4.9,2.7-9.7,5.7-14.5,8.4L759,277&#xD;&#xA;	c-2-3.3-3.3-7-5.1-10.4c0.3,2.3,0.9,4.6,1.5,6.9c-5.6,2-11.7,2.8-16.5,6.6c-1-3-1.9-5.9-3.2-8.8c0.4,4.8,1.3,9.6,1.6,14.5&#xD;&#xA;	c-0.1,0.8-0.4,2.3-0.5,3c-19.7,9.4-40.4,16.7-61.9,20.5c-7.9,1.6-15.9,1.6-23.8,2.7c-3.2-5.1-6-10.6-8.4-16.2&#xD;&#xA;	c0.6,2.9,1.5,5.8,2.5,8.6c-16.7,5.1-33.2,10.8-50.2,14.9c-36.5,9.5-73.8,16.1-111.5,18.1c-1.3-0.3-2.6-0.7-3.8-1.2&#xD;&#xA;	c16.6-25.5,40.4-45.1,65.3-62.1c26-17.4,53.7-32,82.5-44c1,10.1,1.9,20.3,5.7,29.8c-2.4-13.1-2.8-27,1.9-39.7&#xD;&#xA;	c23.2-7.9,46.8-15.6,71.1-19.3c7.3,11.1,13.8,22.9,19.3,35c-0.8-5.9-2.8-11.6-4.6-17.3c5.6,2.5,12.1,1.2,16.7-2.7&#xD;&#xA;	c2.9,9.4,5.7,18.8,9.5,27.9C744.2,228.1,742.7,212.1,741.4,196 M745,202.1c0.2,3.4,0.5,6.7,0.8,10.1c2.6-0.1,5.2-0.3,7.8-0.6&#xD;&#xA;	c-0.1-3.5-0.8-7-2-10.4C749.4,201.5,747.2,201.8,745,202.1 M681.1,214.4c-14.2,3.6-28.4,7.6-42,13c-2.8,6.4-2.3,13.8-2.2,20.6&#xD;&#xA;	c4.4-1.1,8.4-3,12.7-4.3c21.1-7.3,42.8-12.6,64.9-16c-2.9-6.2-5.8-12.5-9.8-18.1C696.8,210.6,688.9,212.7,681.1,214.4 M725.6,224.3&#xD;&#xA;	c0.4,1.5,0.9,3,1.3,4.4c3.4,0,7-0.6,9.7-2.9c1.4-1,0.2-2.8,0.1-4.1C733.2,223.2,729.5,224.5,725.6,224.3 M566.1,268.3&#xD;&#xA;	c-17.4,9.9-34.2,20.8-49.4,33.7c-6.1,5.5-12.4,11-17,17.8c18.9-19.2,42.9-32.3,67-43.9c17.5-8.1,35.4-15.6,53.9-21.1&#xD;&#xA;	c1.6,2.9,3.1,5.8,5.2,8.4c-1.7-7.3-3.7-14.5-4.7-21.9C602.2,249.3,584,258.5,566.1,268.3z"/>
<path class="st3" d="M773.9,217.5c5.3-14.5,22.1-23.4,37.1-19.9c6.8,1.7,14,4.9,17.9,11c-7.3-3.2-15.1-5.6-23.1-5.1&#xD;&#xA;	C793.8,203.9,782.7,209.7,773.9,217.5z"/>
<path class="st4" d="M745,202.1c2.2-0.4,4.4-0.7,6.6-0.9c1.2,3.3,1.9,6.8,2,10.4c-2.6,0.3-5.2,0.6-7.8,0.6&#xD;&#xA;	C745.5,208.8,745.2,205.5,745,202.1z"/>
<path class="st3" d="M826.8,202.1c20.7-1.2,41.9,0.3,61.5,7.4c16,5.7,30.6,15.3,41.6,28.3c11,12.8,18.5,28.9,19.7,45.8&#xD;&#xA;	c-3.2-15-8.9-29.8-18.8-41.6c-14-17.1-34.8-27.4-56.1-31.9c-14.6-3-29.8-4.5-44.7-2.8C828.7,205.7,827.7,203.9,826.8,202.1z"/>
<path class="st0" d="M773.9,217.5c8.8-7.8,19.9-13.6,31.9-14c8-0.5,15.8,1.9,23.1,5.1c0.6,0.2,0.6-1.2,1.1-1.3&#xD;&#xA;	c14.9-1.7,30.1-0.3,44.7,2.8c21.3,4.6,42.2,14.8,56.1,31.9c9.9,11.9,15.6,26.6,18.8,41.6c1.6,13.6-0.6,27.4-4.4,40.5&#xD;&#xA;	c-6.1,20.1-16.4,38.8-28.5,55.9c-9.6,13.5-20.3,26.3-32.7,37.3c-2.2-6.4-4.4-12.9-6.6-19.3c13.2-14.1,24.9-29.9,32.8-47.6&#xD;&#xA;	c7.2-16,11.2-34.1,7.5-51.5c-3.1-13.1-9.3-25.6-18.3-35.6c-10.9-12.2-26.7-19.2-42.8-20.6c-0.9,3.4-2.4,6.8-5,9.1&#xD;&#xA;	c-6.7,6.6-19.2,6.1-24.8-1.7c1.9,6.9,8.2,11.2,14.7,13.1c-0.8,3.1-1.9,6.2-4.5,8.2c-4.3,3.7-11,3.9-15.5,0.6c1.9-6,1.7-13-2.2-18.1&#xD;&#xA;	c2.9,11.2-7,23.5-18.7,22.6c-3-0.5-8-0.4-8.5-4.3c-1.5-6.4-3.4-12.7-4.7-19.1c-0.4-5.3,4.3-8.7,7.8-12c-4.8,0.1-9.6,1.5-13.6,4.4&#xD;&#xA;	c-0.6-1.8-1.2-3.6-1.8-5.3c24.3-6.7,49.5-11.3,74.8-9.7c18.6,1.3,37.5,6.6,52.1,18.5c14.5,11.6,23.7,29.1,26.5,47.4&#xD;&#xA;	c-0.5-17.6-6.3-35.5-18.3-48.6c-9.9-11-23.4-18.3-37.5-22.6c-20-6.1-41.2-7-62-5.9c-13.4,0.8-26.8,2.6-40,5.2&#xD;&#xA;	C775.1,222,774.5,219.7,773.9,217.5z"/>
<path class="st4" d="M681.1,214.4c7.9-1.8,15.7-3.9,23.7-4.8c3.9,5.6,6.9,11.9,9.8,18.1c-22,3.4-43.8,8.7-64.9,16&#xD;&#xA;	c-4.3,1.3-8.3,3.3-12.7,4.3c-0.1-6.9-0.7-14.2,2.2-20.6C652.7,222,666.9,218,681.1,214.4z"/>
<path class="st4" d="M725.6,224.3c3.9,0.2,7.6-1.1,11.2-2.6c0.1,1.3,1.3,3.1-0.1,4.1c-2.7,2.3-6.3,2.9-9.7,2.9&#xD;&#xA;	C726.5,227.3,726,225.8,725.6,224.3z"/>
<path class="st4" d="M566.1,268.3c17.8-9.9,36.1-19.1,54.9-26.9c1.1,7.4,3,14.6,4.7,21.9c-2.1-2.6-3.6-5.6-5.2-8.4&#xD;&#xA;	c-18.5,5.5-36.4,13-53.9,21.1c-24.1,11.5-48.1,24.6-67,43.9c4.6-6.8,11-12.3,17-17.8C532,289.1,548.8,278.2,566.1,268.3z"/>
<path class="st5" d="M759.8,277.2c4.9-2.8,9.6-5.8,14.5-8.4c2.8,7.9,5.6,15.8,8.5,23.7c-3.1,3-6.7,5.6-10.8,7.3&#xD;&#xA;	c-4.5-7.1-8.8-14.3-12.5-21.8L759.8,277.2z"/>
<path class="st5" d="M755.4,273.5l0.2-0.1c0.9,4.9,2.5,9.6,3.7,14.4c-5.9-0.1-11.7,1.9-16.4,5.5c-1.2-4.4-2.6-8.8-4-13.2&#xD;&#xA;	C743.7,276.2,749.8,275.4,755.4,273.5z"/>
<path class="st3" d="M816.2,282.6c3.6-1.2,7.2,1.6,8.1,5c-2.3-1.3-4.7-3.1-7.5-2.3c-2.4,0.3-3.8,2.3-5.3,3.8&#xD;&#xA;	C811.8,286.4,813.2,283.3,816.2,282.6z"/>
<path class="st0" d="M811.5,289.2c1.5-1.5,3-3.6,5.3-3.8c2.8-0.8,5.2,1,7.5,2.3c-0.1,3-1.6,6.2-4.7,6.9&#xD;&#xA;	C815.8,295.8,812.4,292.7,811.5,289.2z"/>
<path class="st5" d="M737.4,285.8c0.7,7.6,1,15.2,0.6,22.8c-22,11.3-45.4,19.9-69.6,24.8c-6.7-6.3-12.4-13.6-17.2-21.5&#xD;&#xA;	c7.9-1.1,15.9-1.1,23.8-2.7c21.5-3.8,42.2-11.1,61.9-20.5C737,288.1,737.3,286.6,737.4,285.8z"/>
<path class="st5" d="M451.1,297.2c15-0.7,30-1.3,45-1.8c-5.5,5.3-10.8,10.9-15.7,16.7c-4.8,0.1-9.7,0.2-14.5,0.8&#xD;&#xA;	c-0.4,7.3-2,14.5-1.5,21.9c-1.5,2.7-3.1,5.3-4.7,7.9c1.2,0.5,2.4,1,3.6,1.5l0,0.2c-2,15.8-3,31.8-4.5,47.6&#xD;&#xA;	c-2.9,33.1-5.7,66.3-8.4,99.4c-1.6-0.4-3.8,0.2-4.8-1.4c-1.8-2.2-3.6-4.4-5.5-6.5c-1.7-0.1-3.5-0.3-5.2-0.4&#xD;&#xA;	C439.9,421.1,445.5,359.1,451.1,297.2z"/>
<path class="st5" d="M263,312.4c36-3.6,71.9-7.1,107.9-10c15,60.8,33,120.9,52.9,180.4c-5.7-0.2-11.3-0.3-17-0.4&#xD;&#xA;	c-18-53.6-34.1-107.8-48.1-162.6c-1.3,0-2.7,0-4,0.1c-26.3,2.2-52.6,4.9-78.8,7.3c-1.4,3.8-2.3,7.7-3.3,11.6&#xD;&#xA;	c-10.9,41.3-21.6,82.6-32.1,124c-1.3,4.9-2.3,10-4,14.8c-15.2-1.6-30.5-3-45.8-4.5c-5.2,16.3-9.7,32.7-14.5,49.1l0,0.1&#xD;&#xA;	c-5.9,0.6-11.7,1.5-17.5,2.3c6.7-23,13.4-46,20.2-69c15.2,1.5,30.4,3.2,45.6,4.5C237,410.8,249.7,361.6,263,312.4z"/>
<path class="st5" d="M595.1,319.4c17-4.2,33.5-9.9,50.2-14.9c2.8,8.2,5.9,16.3,9.4,24.2c-22.2,4.1-44.5,7.5-66.8,9.9&#xD;&#xA;	c-23.6,2.5-47.4,4.1-71.2,3.2c-11.1-0.6-22.2-1.5-33-4.2C521.3,335.5,558.7,328.9,595.1,319.4z"/>
<path class="st5" d="M757.8,308.8l0.9-1c2.5,3.9,4.3,8,6.4,12.1L765,320c-1.3,0.5-2.6,1.1-3.9,1.6l-0.1,0.1&#xD;&#xA;	C760,317.4,757.6,313.3,757.8,308.8z"/>
<path class="st5" d="M780.9,322.2c7.1-4.4,14.1-8.9,20.7-14.1c12.3,1.5,24.6,2.4,36.9,3.8c10,38.8,20.1,77.7,29.7,116.6&#xD;&#xA;	c-61.1,3-122.2,4.9-183.3,5.9c7,70.7,13.4,141.4,19.4,212.2c30-3.8,59.8-8.8,89.4-14.7c-1.6-11.9-3.4-23.7-5-35.6&#xD;&#xA;	c-10.8,1.7-21.6,3.6-32.5,5c-5.2-43.6-11-87.1-16.6-130.7c63.3-3.3,126.4-8.4,189.4-15.1c10.2,34.2,20,68.5,29.9,102.8&#xD;&#xA;	c-18.5,5.2-37.2,9.6-55.8,14.5c10.8,45.5,20.8,91.2,30.7,136.9c-53.1,23.4-107.8,43.4-163.8,58.3c-58.6,15.7-118.9,25.5-179.5,28.4&#xD;&#xA;	c-0.9-46.7-1.7-93.4-2.4-140.1c0.3-0.4,0.8-1.1,1-1.4c-0.1-19.7-0.8-39.5-1.2-59.2c5.3-3,10.6-5.8,15.8-9&#xD;&#xA;	c1.2,25.4,0.9,50.8,1.8,76.3c0.3,4.1-0.7,8.1-1,12.2c0.1,21.8,0.8,43.6,1.1,65.4c0.3,12.8,0.2,25.7,0.7,38.5&#xD;&#xA;	c4.9,0.4,9.8-0.5,14.7-0.8c93-7.9,183.9-33.1,270.2-68.1c8-3.3,16.3-6.3,24-10.2c-9-41.8-18.4-83.4-28.1-125.1&#xD;&#xA;	c-1-4.7-2.6-9.4-2.9-14.2c18.2-4.5,36.5-8.6,54.5-13.8c-6.8-24.6-14.1-49.2-21.3-73.7c-20.5,1.5-41,4-61.5,5.5&#xD;&#xA;	c-32.6,3-65.3,4.9-98,7.1c4,32.3,8.3,64.6,12.3,96.9c10.8-1.2,21.3-4,32.2-4.8c3,22.2,6.5,44.4,9.3,66.6&#xD;&#xA;	c-40.2,8.5-80.9,15-121.7,20.1c-1.9-15.9-2.7-31.9-4.3-47.8c-5.8-66.2-11.8-132.3-18.4-198.4c47.6-0.3,95.1-2,142.7-3.5&#xD;&#xA;	c12.6-0.8,25.2-0.6,37.8-1.9c-7-28.8-14.5-57.5-22-86.1C810.8,324.7,795.7,324.3,780.9,322.2z"/>
<path class="st2" d="M465.9,312.9c4.8-0.6,9.6-0.7,14.5-0.8c-6,7.1-11.3,14.7-16,22.6C463.9,327.4,465.4,320.2,465.9,312.9z"/>
<path class="st2" d="M275.9,327.3c26.3-2.4,52.5-5.1,78.8-7.3c1.3-0.1,2.7-0.1,4-0.1c13.9,54.8,30,109,48.1,162.6&#xD;&#xA;	c-23,0.1-46.4-0.2-68.6,6.5c0.3,6,0.6,12.1,0.4,18.1c0,1.2-0.3,3-1.9,3.1c-1.9-7.5-2.9-15.2-4.2-22.8c-2,0.4-4.1,0.9-6.1,1.4&#xD;&#xA;	c-0.9-1.7-1.7-3.5-2.2-5.3c-2.3-8.6-4.5-17.2-7.1-25.7c-0.7,2-1.2,4.1-1.4,6.3c-1.1,9.4-2.7,18.8-3.8,28.3&#xD;&#xA;	c-6.2,1.7-12.1,3.9-18.1,6.3c-10.6-5.6-23.2-7.2-34.8-4.2c-8.6-7-20.4-10.1-31.3-7.5c-10.6,2.3-19.7,9.7-24.7,19.3&#xD;&#xA;	c-8.7,0.1-17.3,4.6-22,12c-1.3,1.8-1.9,4.7-4.7,4c4.8-16.4,9.3-32.9,14.5-49.1c15.3,1.4,30.5,2.9,45.8,4.5c1.7-4.8,2.7-9.8,4-14.8&#xD;&#xA;	c10.5-41.4,21.2-82.7,32.1-124C273.5,335,274.5,331,275.9,327.3z"/>
<path class="st2" d="M761.1,321.7c1.3-0.5,2.6-1.1,3.9-1.6c1.6,2.7,3,5.6,4.4,8.5c3.8-2.1,7.5-4.5,11.4-6.3&#xD;&#xA;	c14.8,2.1,29.9,2.6,44.7,4.8c7.5,28.7,15,57.4,22,86.1c-12.6,1.2-25.2,1-37.8,1.9c-47.6,1.5-95.1,3.2-142.7,3.5&#xD;&#xA;	c6.6,66.1,12.6,132.3,18.4,198.4c1.6,15.9,2.4,31.9,4.3,47.8c40.8-5,81.5-11.5,121.7-20.1c-2.8-22.2-6.3-44.4-9.3-66.6&#xD;&#xA;	c-10.8,0.7-21.4,3.6-32.2,4.8c-4-32.3-8.2-64.6-12.3-96.9c32.7-2.3,65.4-4.2,98-7.1c20.5-1.5,41-4.1,61.5-5.5&#xD;&#xA;	c7.2,24.5,14.5,49,21.3,73.7c-18,5.1-36.4,9.3-54.5,13.8c0.3,4.9,1.9,9.5,2.9,14.2c9.6,41.6,19.1,83.3,28.1,125.1&#xD;&#xA;	c-7.8,4-16,6.9-24,10.2c-86.3,35-177.2,60.1-270.2,68.1c-4.9,0.3-9.8,1.2-14.7,0.8c-0.5-12.8-0.4-25.7-0.7-38.5&#xD;&#xA;	c-0.3-21.8-0.9-43.6-1.1-65.4c0.3-4.1,1.3-8.1,1-12.2c-0.9-25.4-0.6-50.8-1.8-76.3c10.8-6.6,20.3-14.8,29.7-23.2&#xD;&#xA;	c-9.5-9-19.4-17.7-30.6-24.6c-0.4-38-1.7-76-2.3-114c-0.3-4.4-1.6-8.6-1.6-13c-0.2-15.7-0.3-31.5-1-47.2c20.7-1.2,41.3-3.5,61.7-6.8&#xD;&#xA;	c2.6,2,5.3,3.7,8.1,5.4c22.8-5.6,45.4-12,67.4-20.2c10.1-3.7,19.7-8.5,28.7-14.5C762.7,326.3,761.9,324,761.1,321.7z"/>
<path class="st2" d="M458.8,392c1.5-15.9,2.4-31.8,4.5-47.6c19.5,9.4,40.5,15.3,62,18c-0.1,43.2-0.6,86.4-1,129.6&#xD;&#xA;	c-0.2,4.5,0.7,9.3-1,13.6c-23.9-6.5-48.2-11.3-72.8-14.2C453.1,458.2,455.9,425.1,458.8,392z"/>
<path class="st5" d="M525.3,362.4c5.4,0.7,10.9,1.3,16.3,1.8c-0.7,48.9-0.9,97.8-1.5,146.6c-5.6-1.7-11.2-3.6-16.9-4.9l0-0.2&#xD;&#xA;	c1.7-4.4,0.8-9.1,1-13.6C524.6,448.8,525.2,405.6,525.3,362.4z"/>
<path class="st5" d="M581.7,365.3c5.3-0.1,10.6-0.3,15.9-0.5c0.7,15.7,0.8,31.5,1,47.2c0,4.4,1.3,8.6,1.6,13c0.5,38,1.8,76,2.3,114&#xD;&#xA;	c-5.3-3.2-10.6-6.4-16.1-9.1c-0.8-31.3-1.4-62.6-2.1-93.9c-0.3-0.2-0.9-0.7-1.2-0.9C582.8,411.8,582.1,388.5,581.7,365.3z"/>
<path class="st5" d="M315.6,464c0.2-2.1,0.7-4.3,1.4-6.3c2.6,8.5,4.8,17.1,7.1,25.7c0.5,1.9,1.3,3.6,2.2,5.3l0.1,0.1&#xD;&#xA;	c-4.9,0.8-9.8,2.2-14.6,3.4C312.9,482.8,314.5,473.5,315.6,464z"/>
<path class="st3" d="M228.7,500.1c7.3-2.4,15.7-0.6,21.6,4.2c6.1,4.7,8.6,12.8,8.5,20.2c-2.2-4.5-3.6-9.6-7.3-13.3&#xD;&#xA;	c-8.4-9.5-25.5-8.6-32.7,1.7c-4.5,6.7-3.1,15.2-1.4,22.6c-3.7-5-5.5-11.5-4.7-17.7C214.2,509.7,220.6,502.5,228.7,500.1z"/>
<path class="st2" d="M355.5,501.3c25.1-3.6,50.6-2.8,75.9-2c7.1,10.4,9.8,22.8,11.8,35c0.4-9.3-1-18.5-2.8-27.6&#xD;&#xA;	c21,2.1,41.8,5.7,62.4,10.5c20.4,4.8,40.4,10.9,59.7,19.2c16.4,7,32.3,15.6,46.1,27c-1.8,1.4-3.6,2.9-5.6,4c-13.1,2.2-26,5.3-39.2,7&#xD;&#xA;	c-27.2,4-54.6,6.1-82,6.5c-12.5,0.3-24.9-0.3-37.4-0.2c0.1-3.2,0.1-6.4-0.1-9.7c-0.6,6.2-1.7,12.3-3.3,18.2&#xD;&#xA;	c-29.2,8-59.9,6.9-89.6,2.9c-1.3-5.7-2.1-11.5-3.2-17.2c-0.4,3.1-0.4,6.2-0.5,9.3c-5.5-2-11.3-2-17-1.2c-0.3-1.1-0.6-2.2-0.9-3.3&#xD;&#xA;	c-0.3-1.4-0.5-2.7-0.7-4.1c-0.3,4-0.9,8-1.6,11.9c-5-1-9.9-2.2-14.8-3.4c1.3-24.9-0.3-49.7-1.8-74.5c2.8-0.9,5.7-1.7,8.5-2.4&#xD;&#xA;	c0.2,1.3,0.4,2.6,0.6,4c-2.5,0.4-4.9,0.9-7.3,1.4c-0.2,3.5,0.2,7,1.1,10.4c2.5-0.4,5-0.9,7.4-1.4c-0.1-2.2-0.1-4.4-0.3-6.6&#xD;&#xA;	c1.3,2.9,3.8,5.4,4.1,8.7c1.6,9.3,3.2,18.6,4.3,27.9c0.9-8.8,1-17.6,1-26.4c5.6,1.8,11.8,1.5,16.8-1.9c-0.1,5,0,9.9,0.5,14.9&#xD;&#xA;	c1.3-6,1.9-12.1,3.4-18c0.9-2.3,2.5-4.4,3-6.9C355.1,509.3,354.3,505.1,355.5,501.3 M362.8,506.3c-1.1,0.2-2.9,0.2-3,1.8&#xD;&#xA;	c-2,6.1-3,12.5-3.8,18.8c26.5-3.6,53.3-4.5,79.9-2.7c-1-6.8-3.7-13.3-7.3-19.2c-4.2-0.8-8.6-0.7-12.8-0.8&#xD;&#xA;	C398.1,503.8,380.4,504.4,362.8,506.3 M449.6,513.1c0.7,7.7,1.4,15.5,1.5,23.2c1.2-3.4,1.8-6.9,2.6-10.4c18.4-0.1,36.8,1.8,55.1,4.3&#xD;&#xA;	c20.5,2.9,40.9,7,60.3,14.3c4.8,1.7,9.2,4.1,14,5.6c-5.2-4.3-11.8-6.6-17.8-9.6C528.6,525,489,517.9,449.6,513.1 M333,527.3&#xD;&#xA;	c0.3,1.4-0.5,3.4,1,4.2c3.3,1.6,6.9,1,10.3,0c0.1-1.5,0.1-2.9,0.2-4.3C340.7,528,336.8,528.3,333,527.3z"/>
<path class="st4" d="M362.8,506.3c17.6-1.9,35.3-2.6,52.9-2.1c4.3,0.1,8.6,0.1,12.8,0.8c3.6,5.8,6.3,12.3,7.3,19.2&#xD;&#xA;	c-26.6-1.8-53.5-1-79.9,2.7c0.9-6.4,1.9-12.7,3.8-18.8C359.9,506.5,361.7,506.5,362.8,506.3z"/>
<path class="st0" d="M218.8,513c7.3-10.3,24.4-11.2,32.7-1.7c3.7,3.7,5.1,8.7,7.3,13.3c0.1,0.2,0.3,0.6,0.4,0.8&#xD;&#xA;	c1.6-4.1,1.9-8.5,1.7-12.9c11.5-2.7,23.9-1.2,34.3,4.6c0.5,12.2,1.3,24.5,1.6,36.7c-32.3-6.5-65.6-5.7-98.3-2.6&#xD;&#xA;	c-19.5,2-38.8,5.1-58,9c-18,3.7-36,8.4-53,15.8c-10.2,4.5-20.2,10.1-28.1,18c-5.9,5.9-10.5,13.6-11,22.1c-0.4,6.4,1.1,13.1,5.2,18.1&#xD;&#xA;	c-1.7-5.6-2.5-11.6-0.9-17.3c2-8.4,7.7-15.4,14.3-20.6c8.8-6.9,19.2-11.4,29.7-15c17.4-5.8,35.5-8.8,53.7-11&#xD;&#xA;	c33.5-4.1,67.5-6.1,101.2-4c15.1,1.1,30.3,2.8,45.1,6.5c-0.4,13.1-1,26.2-1.9,39.3c-10.9,8.9-27.5,9.4-39,1.2c5-6.9,6-16.5,1.8-24&#xD;&#xA;	c0.8,5.1,1.1,10.7-1.6,15.3c-4.6,8-14.2,13.1-23.4,11.8c-6.6-0.8-12.8-4.5-16.5-10c-7.4-11-4.3-28.1,7.8-34.4&#xD;&#xA;	c-6.7,1.1-12.1,5.7-15.6,11.3c-24.3-0.5-48.7,0.3-72.7,4.5c-14.7,2.7-29.5,6.4-42.8,13.4c-7,3.9-14.2,8.8-17.5,16.4&#xD;&#xA;	c-3,6.7-0.6,15,4.7,19.8c5.5,5,12.6,7.9,19.6,10.3c20.2,6.6,41.5,9,62.7,11.1c-0.9,4-1.8,8-2.8,12c-16.3,0-32.6-0.5-48.9-1.9&#xD;&#xA;	c-21.6-1.6-43.6-4.7-63-14.8c-9.9-5.3-19.3-12.8-24-23.2c-2.4-5.5-3.3-11.7-2.1-17.6c2.9-7.6,7.5-14.5,13.2-20.3&#xD;&#xA;	c11.1-11.5,25.1-19.8,39.6-26.5c38.2-17,80-23.6,121.3-27.6c-0.7-4.2-1-8.9,1.5-12.6c2.1-3.5,6.2-4.9,9.7-6.5&#xD;&#xA;	c1.5,6.8,5.5,12.7,10.8,17.1c-0.1-0.3-0.2-1-0.3-1.3C215.7,528.2,214.3,519.7,218.8,513z"/>
<path class="st3" d="M260.2,507.5c10.4-3.3,22.2-1.6,31.1,4.7c1.6,1.3,3.9,2.3,3.9,4.7c-10.4-5.7-22.8-7.3-34.3-4.6&#xD;&#xA;	C260.7,510.8,260.5,509.2,260.2,507.5z"/>
<path class="st4" d="M312.7,512.4c2.4-0.5,4.9-0.9,7.3-1.4c0.3,1.3,0.7,2.5,0.9,3.8c0.2,2.2,0.3,4.4,0.3,6.6&#xD;&#xA;	c-2.5,0.5-4.9,0.9-7.4,1.4C313,519.4,312.6,515.9,312.7,512.4z"/>
<path class="st4" d="M449.6,513.1c39.4,4.8,79,12,115.7,27.4c6,3,12.6,5.3,17.8,9.6c-4.8-1.5-9.3-4-14-5.6&#xD;&#xA;	c-19.4-7.3-39.9-11.3-60.3-14.3c-18.3-2.4-36.7-4.4-55.1-4.3c-0.9,3.5-1.4,7-2.6,10.4C450.9,528.5,450.3,520.8,449.6,513.1z"/>
<path class="st3" d="M189.5,534c-1-9.1,8.5-17.1,17.3-14.1c-3.6,1.6-7.6,3-9.7,6.5c-2.5,3.7-2.2,8.4-1.5,12.6&#xD;&#xA;	c-41.3,4-83.1,10.6-121.3,27.6c-14.5,6.6-28.4,15-39.6,26.5c-5.7,5.8-10.3,12.7-13.2,20.3c2.6-14.9,14-26.3,25.6-35&#xD;&#xA;	c14.4-10.6,30.8-18,47.4-24.2C125.1,543,157.3,536.9,189.5,534z"/>
<path class="st4" d="M333,527.3c3.8,0.9,7.7,0.7,11.5-0.2c-0.1,1.4-0.2,2.9-0.2,4.3c-3.3,1-7,1.6-10.3,0&#xD;&#xA;	C332.4,530.7,333.2,528.7,333,527.3z"/>
<path class="st5" d="M563.8,574.3c13.2-1.8,26.1-4.8,39.2-7c-5.2,4.7-12,6.9-18.4,9.5c-21,7.9-42.9,13.2-64.9,17.8&#xD;&#xA;	c-25.6,5.1-51.4,9.1-77.3,11.8c1-8.6,1.6-17.2,2-25.8c12.5-0.1,24.9,0.6,37.4,0.2C509.2,580.4,536.6,578.3,563.8,574.3z"/>
<path class="st5" d="M329.9,579.6c0.3,1.1,0.6,2.2,0.9,3.3c5.7-0.8,11.5-0.8,17,1.2c-0.1,4.6-0.1,9.2-0.1,13.8&#xD;&#xA;	c-5.5-2.2-11.6-2.3-17.3-0.6C330.4,591.4,329.9,585.5,329.9,579.6z"/>
<path class="st5" d="M312.7,584c4.9,1.2,9.9,2.4,14.8,3.4c-1.8,8.4-2.9,17.2-6.6,25.1c-3.3-0.4-6.5-1.4-9.6-2.7&#xD;&#xA;	C311.8,601.2,312.3,592.6,312.7,584z"/>
<path class="st5" d="M351.4,592.1c29.7,4,60.4,5.1,89.6-2.9c-2.4,9-5.7,17.8-10.4,25.8c-24.6,2.3-49.6,0.8-73.9-3.8&#xD;&#xA;	C354.6,604.9,352.8,598.5,351.4,592.1z"/>
<path class="st3" d="M186.1,601.3c0.7-3.6,3.7-6.9,7.6-6.6c3.8-0.1,6.3,3.3,7.1,6.6c-2.1-1.7-4.2-4-7.2-3.9&#xD;&#xA;	C190.6,597.2,188.3,599.5,186.1,601.3z"/>
<path class="st0" d="M186.1,601.3c2.2-1.8,4.5-4.1,7.6-3.8c3-0.1,5.1,2.2,7.2,3.9c-0.3,3.8-3,7.6-7.1,7.6&#xD;&#xA;	C189.4,609.4,186.2,605.4,186.1,601.3z"/>
<path class="st5" d="M523.1,620.3c5.4-1.4,10.8-3.1,16.1-4.8c-0.5,60.5-1,121.1-1.4,181.6c-43.1-0.9-86.3-5.2-128.7-13.2&#xD;&#xA;	c-18.6-47-36.5-94.4-53.2-142.1c5.9,0.8,11.8,1.3,17.7,1.8c15.1,42.3,30.6,84.5,47.5,126.2c25.4,4.5,51,7.5,76.8,9.4&#xD;&#xA;	c8,0.4,16,1.4,24.1,1.1c0.5-37.8,0-75.6,1.1-113.4c0-15.5,0.1-31,0.2-46.5V620.3z"/>
<path class="st2" d="M201.6,620.4c2.1-1.2,4-2.6,5.9-4.1c10.4,12.7,29.4,16.9,44.1,9.6c12.3,7.3,27.8,8.1,41,2.7&#xD;&#xA;	c-5.6,34.6-9.9,69.5-14.9,104.2c-31.5-10.4-62.4-22.7-92.8-36c4.3-20,8.9-40,13.5-59.9C199.6,631.4,201.3,626,201.6,620.4z"/>
<path class="st5" d="M185.7,620.5c5.1,1.9,10.8,1.8,16-0.1c-0.3,5.6-2,11-3.2,16.4c-4.6,20-9.2,39.9-13.5,59.9&#xD;&#xA;	c30.4,13.3,61.3,25.5,92.8,36c5.1-34.7,9.3-69.6,14.9-104.2l0.2-0.8c5.1,1.8,10,4,15.2,5.4c-5.8,40.3-11.4,80.7-16.9,121.1&#xD;&#xA;	c-42.5-13.6-84.1-29.9-124.8-48.1C172.5,677.6,179,649.1,185.7,620.5z"/>
<path class="st2" d="M446.6,635.8c25.8-3.5,51.4-8.5,76.5-15.3c0,15.5-0.2,31-0.2,46.5c-1,37.8-0.5,75.6-1.1,113.4&#xD;&#xA;	c-8,0.3-16-0.7-24.1-1.1c-25.7-1.9-51.4-4.9-76.8-9.4c-16.8-41.7-32.4-83.8-47.5-126.2c22.1,1.1,44.3,0.8,66.5-0.3&#xD;&#xA;	C442.4,641,444.3,638.2,446.6,635.8z"/>
</svg>
