<?xml version="1.0" encoding="UTF-8" standalone="no"?>
<!DOCTYPE svg PUBLIC "-//W3C//DTD SVG 1.1//EN" "http://www.w3.org/Graphics/SVG/1.1/DTD/svg11.dtd">
<svg xmlns="http://www.w3.org/2000/svg" version="1.1" viewBox="0.00 0.00 570.00 570.00">
<g stroke-width="2.00" fill="none" stroke-linecap="butt">
<path stroke="#e796ee" vector-effect="non-scaling-stroke" d="
  M 380.05 278.70
  A 0.24 0.23 43.6 0 1 380.04 278.33
  Q 418.13 246.54 416.73 197.96
  C 415.23 145.64 370.81 118.04 322.75 118.13
  Q 258.87 118.26 195.14 118.25
  Q 194.50 118.25 194.42 118.88
  L 154.13 449.74
  Q 153.98 451.00 155.25 451.00
  Q 219.97 450.93 285.24 450.98
  Q 298.95 450.99 305.23 450.36
  C 346.32 446.27 384.50 423.33 402.05 385.14
  C 418.93 348.42 415.22 303.79 380.05 278.70"
/>
<path stroke="#e796ee" vector-effect="non-scaling-stroke" d="
  M 299.24 246.21
  A 0.44 0.44 0.0 0 1 298.86 245.55
  Q 321.54 207.34 344.06 169.49
  Q 345.74 166.66 344.45 164.29
  C 343.28 162.14 341.01 162.27 338.74 162.27
  Q 308.88 162.30 279.00 162.31
  Q 276.10 162.31 274.73 165.24
  Q 245.63 227.75 216.53 290.25
  C 214.69 294.20 217.39 296.37 221.19 296.39
  Q 240.33 296.54 259.27 296.32
  A 0.63 0.63 0.0 0 1 259.86 297.18
  Q 238.06 352.73 216.40 407.99
  Q 214.59 412.62 219.92 414.01
  Q 220.37 414.13 220.78 413.89
  Q 222.56 412.88 224.24 410.74
  Q 285.88 332.12 347.41 253.42
  Q 350.54 249.42 346.91 246.74
  Q 346.15 246.18 345.20 246.19
  L 299.24 246.21"
/>
</g>
<path fill="#ce2ddd" d="
  M 541.00 490.66
  A 50.08 50.08 0.0 0 1 490.92 540.74
  L 79.08 540.74
  A 50.08 50.08 0.0 0 1 29.00 490.66
  L 29.00 78.82
  A 50.08 50.08 0.0 0 1 79.08 28.74
  L 490.92 28.74
  A 50.08 50.08 0.0 0 1 541.00 78.82
  L 541.00 490.66
  Z
  M 380.05 278.70
  A 0.24 0.23 43.6 0 1 380.04 278.33
  Q 418.13 246.54 416.73 197.96
  C 415.23 145.64 370.81 118.04 322.75 118.13
  Q 258.87 118.26 195.14 118.25
  Q 194.50 118.25 194.42 118.88
  L 154.13 449.74
  Q 153.98 451.00 155.25 451.00
  Q 219.97 450.93 285.24 450.98
  Q 298.95 450.99 305.23 450.36
  C 346.32 446.27 384.50 423.33 402.05 385.14
  C 418.93 348.42 415.22 303.79 380.05 278.70
  Z"
/>
<path fill="#ffffff" d="
  M 380.05 278.70
  C 415.22 303.79 418.93 348.42 402.05 385.14
  C 384.50 423.33 346.32 446.27 305.23 450.36
  Q 298.95 450.99 285.24 450.98
  Q 219.97 450.93 155.25 451.00
  Q 153.98 451.00 154.13 449.74
  L 194.42 118.88
  Q 194.50 118.25 195.14 118.25
  Q 258.87 118.26 322.75 118.13
  C 370.81 118.04 415.23 145.64 416.73 197.96
  Q 418.13 246.54 380.04 278.33
  A 0.24 0.23 43.6 0 0 380.05 278.70
  Z
  M 299.24 246.21
  A 0.44 0.44 0.0 0 1 298.86 245.55
  Q 321.54 207.34 344.06 169.49
  Q 345.74 166.66 344.45 164.29
  C 343.28 162.14 341.01 162.27 338.74 162.27
  Q 308.88 162.30 279.00 162.31
  Q 276.10 162.31 274.73 165.24
  Q 245.63 227.75 216.53 290.25
  C 214.69 294.20 217.39 296.37 221.19 296.39
  Q 240.33 296.54 259.27 296.32
  A 0.63 0.63 0.0 0 1 259.86 297.18
  Q 238.06 352.73 216.40 407.99
  Q 214.59 412.62 219.92 414.01
  Q 220.37 414.13 220.78 413.89
  Q 222.56 412.88 224.24 410.74
  Q 285.88 332.12 347.41 253.42
  Q 350.54 249.42 346.91 246.74
  Q 346.15 246.18 345.20 246.19
  L 299.24 246.21
  Z"
/>
<path fill="#ce2ddd" d="
  M 299.24 246.21
  L 345.20 246.19
  Q 346.15 246.18 346.91 246.74
  Q 350.54 249.42 347.41 253.42
  Q 285.88 332.12 224.24 410.74
  Q 222.56 412.88 220.78 413.89
  Q 220.37 414.13 219.92 414.01
  Q 214.59 412.62 216.40 407.99
  Q 238.06 352.73 259.86 297.18
  A 0.63 0.63 0.0 0 0 259.27 296.32
  Q 240.33 296.54 221.19 296.39
  C 217.39 296.37 214.69 294.20 216.53 290.25
  Q 245.63 227.75 274.73 165.24
  Q 276.10 162.31 279.00 162.31
  Q 308.88 162.30 338.74 162.27
  C 341.01 162.27 343.28 162.14 344.45 164.29
  Q 345.74 166.66 344.06 169.49
  Q 321.54 207.34 298.86 245.55
  A 0.44 0.44 0.0 0 0 299.24 246.21
  Z"
/>
</svg>
